%TF.GenerationSoftware,KiCad,Pcbnew,9.0.6*%
%TF.CreationDate,2026-01-02T14:09:44+01:00*%
%TF.ProjectId,Expansion_Card_Retrofit,45787061-6e73-4696-9f6e-5f436172645f,X1*%
%TF.SameCoordinates,Original*%
%TF.FileFunction,Copper,L1,Top*%
%TF.FilePolarity,Positive*%
%FSLAX46Y46*%
G04 Gerber Fmt 4.6, Leading zero omitted, Abs format (unit mm)*
G04 Created by KiCad (PCBNEW 9.0.6) date 2026-01-02 14:09:44*
%MOMM*%
%LPD*%
G01*
G04 APERTURE LIST*
G04 Aperture macros list*
%AMRoundRect*
0 Rectangle with rounded corners*
0 $1 Rounding radius*
0 $2 $3 $4 $5 $6 $7 $8 $9 X,Y pos of 4 corners*
0 Add a 4 corners polygon primitive as box body*
4,1,4,$2,$3,$4,$5,$6,$7,$8,$9,$2,$3,0*
0 Add four circle primitives for the rounded corners*
1,1,$1+$1,$2,$3*
1,1,$1+$1,$4,$5*
1,1,$1+$1,$6,$7*
1,1,$1+$1,$8,$9*
0 Add four rect primitives between the rounded corners*
20,1,$1+$1,$2,$3,$4,$5,0*
20,1,$1+$1,$4,$5,$6,$7,0*
20,1,$1+$1,$6,$7,$8,$9,0*
20,1,$1+$1,$8,$9,$2,$3,0*%
%AMRotRect*
0 Rectangle, with rotation*
0 The origin of the aperture is its center*
0 $1 length*
0 $2 width*
0 $3 Rotation angle, in degrees counterclockwise*
0 Add horizontal line*
21,1,$1,$2,0,0,$3*%
G04 Aperture macros list end*
%TA.AperFunction,SMDPad,CuDef*%
%ADD10R,1.500000X1.500000*%
%TD*%
%TA.AperFunction,SMDPad,CuDef*%
%ADD11R,0.380000X1.000000*%
%TD*%
%TA.AperFunction,SMDPad,CuDef*%
%ADD12R,0.700000X1.150000*%
%TD*%
%TA.AperFunction,SMDPad,CuDef*%
%ADD13RoundRect,0.100000X0.100000X-0.130000X0.100000X0.130000X-0.100000X0.130000X-0.100000X-0.130000X0*%
%TD*%
%TA.AperFunction,SMDPad,CuDef*%
%ADD14RoundRect,0.100000X0.130000X0.100000X-0.130000X0.100000X-0.130000X-0.100000X0.130000X-0.100000X0*%
%TD*%
%TA.AperFunction,SMDPad,CuDef*%
%ADD15RoundRect,0.100000X-0.100000X0.130000X-0.100000X-0.130000X0.100000X-0.130000X0.100000X0.130000X0*%
%TD*%
%TA.AperFunction,SMDPad,CuDef*%
%ADD16R,0.300000X1.900000*%
%TD*%
%TA.AperFunction,ComponentPad*%
%ADD17C,1.800000*%
%TD*%
%TA.AperFunction,SMDPad,CuDef*%
%ADD18RoundRect,0.062500X0.203293X0.291682X-0.291682X-0.203293X-0.203293X-0.291682X0.291682X0.203293X0*%
%TD*%
%TA.AperFunction,SMDPad,CuDef*%
%ADD19RoundRect,0.062500X-0.203293X0.291682X-0.291682X0.203293X0.203293X-0.291682X0.291682X-0.203293X0*%
%TD*%
%TA.AperFunction,HeatsinkPad*%
%ADD20RotRect,5.700000X5.700000X225.000000*%
%TD*%
%TA.AperFunction,SMDPad,CuDef*%
%ADD21RoundRect,0.093750X-0.093750X0.156250X-0.093750X-0.156250X0.093750X-0.156250X0.093750X0.156250X0*%
%TD*%
%TA.AperFunction,SMDPad,CuDef*%
%ADD22RoundRect,0.075000X-0.075000X0.250000X-0.075000X-0.250000X0.075000X-0.250000X0.075000X0.250000X0*%
%TD*%
%TA.AperFunction,SMDPad,CuDef*%
%ADD23RoundRect,0.249999X-0.650001X-0.450001X0.650001X-0.450001X0.650001X0.450001X-0.650001X0.450001X0*%
%TD*%
%TA.AperFunction,SMDPad,CuDef*%
%ADD24RoundRect,0.100000X-0.130000X-0.100000X0.130000X-0.100000X0.130000X0.100000X-0.130000X0.100000X0*%
%TD*%
%TA.AperFunction,ViaPad*%
%ADD25C,0.300000*%
%TD*%
%TA.AperFunction,ViaPad*%
%ADD26C,0.800000*%
%TD*%
%TA.AperFunction,Conductor*%
%ADD27C,0.152400*%
%TD*%
%TA.AperFunction,Conductor*%
%ADD28C,0.250000*%
%TD*%
G04 APERTURE END LIST*
D10*
%TO.P,TP3,1,1*%
%TO.N,GND*%
X145550000Y-128300000D03*
%TD*%
%TO.P,TP1,1,1*%
%TO.N,GND*%
X134450000Y-128300000D03*
%TD*%
D11*
%TO.P,P2,A1,GND*%
%TO.N,GND*%
X137250000Y-129050000D03*
%TO.P,P2,A2,TX1+*%
%TO.N,Net-(P2-TX1+)*%
X137750000Y-129050000D03*
%TO.P,P2,A3,TX1-*%
%TO.N,Net-(P2-TX1-)*%
X138250000Y-129050000D03*
%TO.P,P2,A4,VBUS*%
%TO.N,+5V*%
X138750000Y-129050000D03*
%TO.P,P2,A5,CC*%
%TO.N,unconnected-(P2-CC-PadA5)*%
X139250000Y-129050000D03*
%TO.P,P2,A6,D+*%
%TO.N,Net-(P2-D+)*%
X139750000Y-129050000D03*
%TO.P,P2,A7,D-*%
%TO.N,Net-(P2-D-)*%
X140250000Y-129050000D03*
%TO.P,P2,A8,SBU1*%
%TO.N,unconnected-(P2-SBU1-PadA8)*%
X140750000Y-129050000D03*
%TO.P,P2,A9,VBUS*%
%TO.N,+5V*%
X141250000Y-129050000D03*
%TO.P,P2,A10,RX2-*%
%TO.N,unconnected-(P2-RX2--PadA10)*%
X141750000Y-129050000D03*
%TO.P,P2,A11,RX2+*%
%TO.N,unconnected-(P2-RX2+-PadA11)*%
X142250000Y-129050000D03*
%TO.P,P2,A12,GND*%
%TO.N,GND*%
X142750000Y-129050000D03*
D12*
%TO.P,P2,S1,SHIELD*%
X136580000Y-129890000D03*
%TD*%
D13*
%TO.P,C10,1*%
%TO.N,GND*%
X132650000Y-136670000D03*
%TO.P,C10,2*%
%TO.N,Net-(U1-XTIN)*%
X132650000Y-136030000D03*
%TD*%
D14*
%TO.P,C1,1*%
%TO.N,+5V*%
X145520000Y-130100000D03*
%TO.P,C1,2*%
%TO.N,GND*%
X144880000Y-130100000D03*
%TD*%
D13*
%TO.P,R1,1*%
%TO.N,Net-(U1-USB_REXT)*%
X143450000Y-133850000D03*
%TO.P,R1,2*%
%TO.N,GND*%
X143450000Y-133210000D03*
%TD*%
D14*
%TO.P,R6,1*%
%TO.N,Net-(J1-SDA)*%
X136090000Y-145100000D03*
%TO.P,R6,2*%
%TO.N,+5V*%
X135450000Y-145100000D03*
%TD*%
D15*
%TO.P,C2,1*%
%TO.N,+5V*%
X132800000Y-144730000D03*
%TO.P,C2,2*%
%TO.N,GND*%
X132800000Y-145370000D03*
%TD*%
%TO.P,R8,1*%
%TO.N,Net-(U1-GPIO0)*%
X135200000Y-142730000D03*
%TO.P,R8,2*%
%TO.N,GND*%
X135200000Y-143370000D03*
%TD*%
%TO.P,C3,1*%
%TO.N,+5V*%
X134620000Y-144730000D03*
%TO.P,C3,2*%
%TO.N,GND*%
X134620000Y-145370000D03*
%TD*%
D16*
%TO.P,J1,1,D2+*%
%TO.N,Net-(J1-D2+)*%
X144650000Y-147000000D03*
%TO.P,J1,2,D2S*%
%TO.N,unconnected-(J1-D2S-Pad2)*%
X144150000Y-147000000D03*
%TO.P,J1,3,D2-*%
%TO.N,Net-(J1-D2-)*%
X143650000Y-147000000D03*
%TO.P,J1,4,D1+*%
%TO.N,Net-(J1-D1+)*%
X143150000Y-147000000D03*
%TO.P,J1,5,D1S*%
%TO.N,unconnected-(J1-D1S-Pad5)*%
X142650000Y-147000000D03*
%TO.P,J1,6,D1-*%
%TO.N,Net-(J1-D1-)*%
X142150000Y-147000000D03*
%TO.P,J1,7,D0+*%
%TO.N,Net-(J1-D0+)*%
X141650000Y-147000000D03*
%TO.P,J1,8,D0S*%
%TO.N,unconnected-(J1-D0S-Pad8)*%
X141150000Y-147000000D03*
%TO.P,J1,9,D0-*%
%TO.N,Net-(J1-D0-)*%
X140650000Y-147000000D03*
%TO.P,J1,10,CK+*%
%TO.N,Net-(J1-CK+)*%
X140150000Y-147000000D03*
%TO.P,J1,11,CKS*%
%TO.N,unconnected-(J1-CKS-Pad11)*%
X139650000Y-147000000D03*
%TO.P,J1,12,CK-*%
%TO.N,Net-(J1-CK-)*%
X139150000Y-147000000D03*
%TO.P,J1,13,CEC*%
%TO.N,unconnected-(J1-CEC-Pad13)*%
X138650000Y-147000000D03*
%TO.P,J1,14,UTILITY*%
%TO.N,unconnected-(J1-UTILITY-Pad14)*%
X138150000Y-147000000D03*
%TO.P,J1,15,SCL*%
%TO.N,Net-(J1-SCL)*%
X137650000Y-147000000D03*
%TO.P,J1,16,SDA*%
%TO.N,Net-(J1-SDA)*%
X137150000Y-147000000D03*
%TO.P,J1,17,GND*%
%TO.N,GND*%
X136650000Y-147000000D03*
%TO.P,J1,18,+5V*%
%TO.N,Net-(J1-+5V)*%
X136150000Y-147000000D03*
%TO.P,J1,19,HPD*%
%TO.N,Net-(J1-HPD)*%
X135650000Y-147000000D03*
D17*
%TO.P,J1,SH,SH*%
%TO.N,unconnected-(J1-PadSH)*%
X132050000Y-152900000D03*
X132650000Y-148000000D03*
X147150000Y-148000000D03*
X147750000Y-152900000D03*
%TD*%
D18*
%TO.P,U1,1,DVDD33*%
%TO.N,+3.3V*%
X145539437Y-137663864D03*
%TO.P,U1,2,AVDD33_USB*%
X145185883Y-137310311D03*
%TO.P,U1,3,DM*%
%TO.N,Net-(U1-DM)*%
X144832330Y-136956757D03*
%TO.P,U1,4,DP*%
%TO.N,Net-(U1-DP)*%
X144478777Y-136603204D03*
%TO.P,U1,5,AVDD33_USB*%
%TO.N,+3.3V*%
X144125223Y-136249651D03*
%TO.P,U1,6,AVDD11_USB*%
%TO.N,+1V1*%
X143771670Y-135896097D03*
%TO.P,U1,7,USB_REXT*%
%TO.N,Net-(U1-USB_REXT)*%
X143418116Y-135542544D03*
%TO.P,U1,8,AVDD33_USB*%
%TO.N,+3.3V*%
X143064563Y-135188990D03*
%TO.P,U1,9,SSTXM*%
%TO.N,Net-(U1-SSTXM)*%
X142711010Y-134835437D03*
%TO.P,U1,10,AVDD11_USB*%
%TO.N,+1V1*%
X142357456Y-134481884D03*
%TO.P,U1,11,SSTXP*%
%TO.N,Net-(U1-SSTXP)*%
X142003903Y-134128330D03*
%TO.P,U1,12,AVDD11_USB*%
%TO.N,+1V1*%
X141650349Y-133774777D03*
%TO.P,U1,13,SSRXM*%
%TO.N,Net-(P2-RX1-)*%
X141296796Y-133421223D03*
%TO.P,U1,14,SSRXP*%
%TO.N,Net-(P2-RX1+)*%
X140943243Y-133067670D03*
%TO.P,U1,15,AVSS*%
%TO.N,GND*%
X140589689Y-132714117D03*
%TO.P,U1,16,DVDD33*%
%TO.N,+3.3V*%
X140236136Y-132360563D03*
D19*
%TO.P,U1,17,DVSS*%
%TO.N,GND*%
X139263864Y-132360563D03*
%TO.P,U1,18,DVDD11*%
%TO.N,+1V1*%
X138910311Y-132714117D03*
%TO.P,U1,19,AVSS*%
%TO.N,GND*%
X138556757Y-133067670D03*
%TO.P,U1,20,AVDD25*%
%TO.N,+2V5*%
X138203204Y-133421223D03*
%TO.P,U1,21,XTIN*%
%TO.N,Net-(U1-XTIN)*%
X137849651Y-133774777D03*
%TO.P,U1,22,XTOUT*%
%TO.N,Net-(U1-XTOUT)*%
X137496097Y-134128330D03*
%TO.P,U1,23,AVDD25*%
%TO.N,+2V5*%
X137142544Y-134481884D03*
%TO.P,U1,24,AVDD11*%
%TO.N,+1V1*%
X136788990Y-134835437D03*
%TO.P,U1,25,AVSS*%
%TO.N,GND*%
X136435437Y-135188990D03*
%TO.P,U1,26,RXDDCSCL*%
%TO.N,Net-(J1-SCL)*%
X136081884Y-135542544D03*
%TO.P,U1,27,RXDDCSDA*%
%TO.N,Net-(J1-SDA)*%
X135728330Y-135896097D03*
%TO.P,U1,28,HDMIRXDET*%
%TO.N,unconnected-(U1-HDMIRXDET-Pad28)*%
X135374777Y-136249651D03*
%TO.P,U1,29,HDMIRXHPD*%
%TO.N,Net-(U1-HDMIRXHPD)*%
X135021223Y-136603204D03*
%TO.P,U1,30,DVSS*%
%TO.N,GND*%
X134667670Y-136956757D03*
%TO.P,U1,31,DVDD33*%
%TO.N,+3.3V*%
X134314117Y-137310311D03*
%TO.P,U1,32,DVSS*%
%TO.N,GND*%
X133960563Y-137663864D03*
D18*
%TO.P,U1,33,DVDD33*%
%TO.N,+3.3V*%
X133960563Y-138636136D03*
%TO.P,U1,34,DVSS*%
%TO.N,GND*%
X134314117Y-138989689D03*
%TO.P,U1,35,GPIO4*%
%TO.N,SPIMOSI*%
X134667670Y-139343243D03*
%TO.P,U1,36,GPIO3*%
%TO.N,SPICLK*%
X135021223Y-139696796D03*
%TO.P,U1,37,GPIO5*%
%TO.N,SPIMISO*%
X135374777Y-140050349D03*
%TO.P,U1,38,GPIO2*%
%TO.N,SPICS*%
X135728330Y-140403903D03*
%TO.P,U1,39,DVDD11*%
%TO.N,+1V1*%
X136081884Y-140757456D03*
%TO.P,U1,40,DVSS*%
%TO.N,GND*%
X136435437Y-141111010D03*
%TO.P,U1,41,DVDD33*%
%TO.N,+3.3V*%
X136788990Y-141464563D03*
%TO.P,U1,42,GPIO0*%
%TO.N,Net-(U1-GPIO0)*%
X137142544Y-141818116D03*
%TO.P,U1,43,GPIO1*%
%TO.N,unconnected-(U1-GPIO1-Pad43)*%
X137496097Y-142171670D03*
%TO.P,U1,44,MCU_SEL*%
%TO.N,unconnected-(U1-MCU_SEL-Pad44)*%
X137849651Y-142525223D03*
%TO.P,U1,45,HDMIRX_REXT*%
%TO.N,Net-(U1-HDMIRX_REXT)*%
X138203204Y-142878777D03*
%TO.P,U1,46,HDMIRXCN*%
%TO.N,Net-(J1-CK-)*%
X138556757Y-143232330D03*
%TO.P,U1,47,AVDD25*%
%TO.N,+2V5*%
X138910311Y-143585883D03*
%TO.P,U1,48,AVDD33*%
%TO.N,+3.3V*%
X139263864Y-143939437D03*
D19*
%TO.P,U1,49,HDMIRXCP*%
%TO.N,Net-(J1-CK+)*%
X140236136Y-143939437D03*
%TO.P,U1,50,AVSS*%
%TO.N,GND*%
X140589689Y-143585883D03*
%TO.P,U1,51,AVDD11*%
%TO.N,+1V1*%
X140943243Y-143232330D03*
%TO.P,U1,52,AVDD33*%
%TO.N,+3.3V*%
X141296796Y-142878777D03*
%TO.P,U1,53,HDMIRX0N*%
%TO.N,Net-(J1-D0-)*%
X141650349Y-142525223D03*
%TO.P,U1,54,HDMIRX0P*%
%TO.N,Net-(J1-D0+)*%
X142003903Y-142171670D03*
%TO.P,U1,55,AVDD11*%
%TO.N,+1V1*%
X142357456Y-141818116D03*
%TO.P,U1,56,AVDD33*%
%TO.N,+3.3V*%
X142711010Y-141464563D03*
%TO.P,U1,57,HDMIRX1N*%
%TO.N,Net-(J1-D1-)*%
X143064563Y-141111010D03*
%TO.P,U1,58,HDMIRX1P*%
%TO.N,Net-(J1-D1+)*%
X143418116Y-140757456D03*
%TO.P,U1,59,AVDD11*%
%TO.N,+1V1*%
X143771670Y-140403903D03*
%TO.P,U1,60,AVDD33*%
%TO.N,+3.3V*%
X144125223Y-140050349D03*
%TO.P,U1,61,HDMIRX2N*%
%TO.N,Net-(J1-D2-)*%
X144478777Y-139696796D03*
%TO.P,U1,62,HDMIRX2P*%
%TO.N,Net-(J1-D2+)*%
X144832330Y-139343243D03*
%TO.P,U1,63,DVO_D7*%
%TO.N,unconnected-(U1-DVO_D7-Pad63)*%
X145185883Y-138989689D03*
%TO.P,U1,64,DVSS*%
%TO.N,GND*%
X145539437Y-138636136D03*
D20*
%TO.P,U1,65,AVSS*%
X139750000Y-138150000D03*
%TD*%
D21*
%TO.P,U3,1,I/O1*%
%TO.N,Net-(P2-D-)*%
X145637500Y-132000000D03*
D22*
%TO.P,U3,2,GND*%
%TO.N,GND*%
X145100000Y-131925000D03*
D21*
%TO.P,U3,3,I/O2*%
%TO.N,Net-(P2-D+)*%
X144562500Y-132000000D03*
%TO.P,U3,4,I/O2*%
%TO.N,Net-(U1-DP)*%
X144562500Y-133700000D03*
D22*
%TO.P,U3,5,VBUS*%
%TO.N,+5V*%
X145100000Y-133775000D03*
D21*
%TO.P,U3,6,I/O1*%
%TO.N,Net-(U1-DM)*%
X145637500Y-133700000D03*
%TD*%
D15*
%TO.P,R4,1*%
%TO.N,+5V*%
X133750000Y-144750000D03*
%TO.P,R4,2*%
%TO.N,Net-(J1-+5V)*%
X133750000Y-145390000D03*
%TD*%
D23*
%TO.P,Y1,1,1*%
%TO.N,Net-(U1-XTOUT)*%
X129850000Y-133550000D03*
%TO.P,Y1,2,2*%
%TO.N,Net-(U1-XTIN)*%
X134250000Y-133550000D03*
%TO.P,Y1,3*%
%TO.N,N/C*%
X134250000Y-131150000D03*
%TO.P,Y1,4*%
X129850000Y-131150000D03*
%TD*%
D14*
%TO.P,R2,1*%
%TO.N,Net-(U1-HDMIRX_REXT)*%
X136670000Y-143400000D03*
%TO.P,R2,2*%
%TO.N,GND*%
X136030000Y-143400000D03*
%TD*%
D13*
%TO.P,C11,1*%
%TO.N,GND*%
X131700000Y-136670000D03*
%TO.P,C11,2*%
%TO.N,Net-(U1-XTOUT)*%
X131700000Y-136030000D03*
%TD*%
D14*
%TO.P,R9,1*%
%TO.N,Net-(U1-XTIN)*%
X132490000Y-135050000D03*
%TO.P,R9,2*%
%TO.N,Net-(U1-XTOUT)*%
X131850000Y-135050000D03*
%TD*%
%TO.P,R5,1*%
%TO.N,Net-(J1-SCL)*%
X136090000Y-144250000D03*
%TO.P,R5,2*%
%TO.N,+5V*%
X135450000Y-144250000D03*
%TD*%
D24*
%TO.P,R7,1*%
%TO.N,+5V*%
X133710000Y-142700000D03*
%TO.P,R7,2*%
%TO.N,Net-(U1-GPIO0)*%
X134350000Y-142700000D03*
%TD*%
D25*
%TO.N,Net-(U1-HDMIRXHPD)*%
X133050000Y-146150000D03*
%TO.N,+1V1*%
X142850000Y-132800000D03*
%TO.N,Net-(U4-EN1)*%
X147950000Y-132512500D03*
X147950000Y-136387500D03*
%TO.N,+1V1*%
X145520000Y-130950000D03*
%TO.N,+2V5*%
X148987500Y-138170000D03*
%TO.N,+3.3V*%
X146402500Y-139050000D03*
%TO.N,+5V*%
X148450000Y-136387500D03*
X146950000Y-136387500D03*
%TO.N,GND*%
X145762500Y-135700000D03*
%TO.N,+5V*%
X146950000Y-132512500D03*
%TO.N,GND*%
X149637500Y-135700000D03*
X149637500Y-134700000D03*
%TO.N,+5V*%
X149637500Y-134200000D03*
%TO.N,GND*%
X151452500Y-134500000D03*
X149637500Y-133200000D03*
%TO.N,+1V2*%
X151402500Y-132050000D03*
%TO.N,+5V*%
X148450000Y-132512500D03*
D26*
%TO.N,GND*%
X134450000Y-128300000D03*
X132135000Y-146035000D03*
D25*
X133960563Y-137663864D03*
D26*
X133750000Y-135250000D03*
X134500000Y-143700000D03*
X136580000Y-129890000D03*
X139750000Y-138150000D03*
X143420000Y-129890000D03*
X145550000Y-128300000D03*
D25*
%TO.N,+1V1*%
X136081884Y-140757456D03*
X138910311Y-132714117D03*
%TO.N,+3.3V*%
X139263864Y-143939437D03*
X141296796Y-142878777D03*
X144125223Y-140050349D03*
X142711010Y-141464563D03*
%TO.N,+1V1*%
X141650349Y-133774777D03*
X143771670Y-135896097D03*
X142357456Y-134481884D03*
%TO.N,+2V5*%
X138910311Y-143585883D03*
X138203204Y-133421223D03*
X137142544Y-134481884D03*
%TO.N,+1V1*%
X136788990Y-134835437D03*
X142357456Y-141818116D03*
%TO.N,+3.3V*%
X143064563Y-135188990D03*
X144125223Y-136249651D03*
X145185883Y-137310311D03*
D26*
%TO.N,Net-(J1-HPD)*%
X134650000Y-146250000D03*
D25*
%TO.N,Net-(P2-TX1-)*%
X138100000Y-131000000D03*
%TO.N,Net-(P2-TX1+)*%
X137450000Y-130700000D03*
%TO.N,Net-(P2-RX1-)*%
X139500000Y-130376200D03*
%TO.N,Net-(P2-RX1+)*%
X139500000Y-130900000D03*
%TO.N,+3.3V*%
X140236136Y-132360563D03*
X134314117Y-137310311D03*
X145539437Y-137663864D03*
X133960563Y-138636136D03*
%TO.N,SPIMOSI*%
X134667670Y-139343243D03*
%TO.N,SPICLK*%
X135021223Y-139696796D03*
X132450000Y-139550000D03*
X131700000Y-142800000D03*
%TO.N,SPIMISO*%
X135374777Y-140050349D03*
%TO.N,SPICS*%
X135728330Y-140403903D03*
%TO.N,+5V*%
X138749999Y-129712483D03*
X145535000Y-130115000D03*
X141500000Y-129950000D03*
X133710000Y-142700000D03*
%TO.N,Net-(U1-SSTXM)*%
X142711010Y-134835437D03*
%TO.N,Net-(U1-SSTXP)*%
X142003903Y-134128330D03*
%TO.N,Net-(U1-HDMIRXHPD)*%
X135021223Y-136603204D03*
%TD*%
D27*
%TO.N,+5V*%
X146950000Y-132512500D02*
X146473700Y-132512500D01*
X146473700Y-132512500D02*
X146455600Y-132494400D01*
%TO.N,GND*%
X143450000Y-133280000D02*
X143520000Y-133210000D01*
X143450000Y-133210000D02*
X143520000Y-133210000D01*
D28*
X134884774Y-145370000D02*
X135140774Y-145626000D01*
X136650000Y-145885810D02*
X136650000Y-147000000D01*
D27*
X134314117Y-138989689D02*
X135153806Y-138150000D01*
D28*
X131424000Y-146746000D02*
X132135000Y-146035000D01*
X135140774Y-145626000D02*
X136390190Y-145626000D01*
D27*
X144880000Y-130226212D02*
X144880000Y-130100000D01*
X133750000Y-135250000D02*
X133750000Y-135769999D01*
X143630000Y-130100000D02*
X143420000Y-129890000D01*
D28*
X134830000Y-143370000D02*
X134500000Y-143700000D01*
D27*
X139263864Y-132360563D02*
X139542917Y-132639616D01*
X146102200Y-132312502D02*
X146102200Y-131448412D01*
X131700000Y-136670000D02*
X132650000Y-136670000D01*
X133960563Y-137663864D02*
X133963864Y-137663864D01*
D28*
X135711810Y-149226000D02*
X132142174Y-149226000D01*
D27*
X145100000Y-132239702D02*
X145387498Y-132527200D01*
X139542917Y-132639616D02*
X139542917Y-137942917D01*
D28*
X136000000Y-143370000D02*
X136030000Y-143400000D01*
D27*
X140589689Y-132714117D02*
X139750000Y-133553806D01*
X136435437Y-141111010D02*
X139396447Y-138150000D01*
D28*
X134620000Y-145370000D02*
X134884774Y-145370000D01*
X132142174Y-149226000D02*
X131424000Y-148507826D01*
D27*
X137250000Y-129220000D02*
X136580000Y-129890000D01*
X144202800Y-132527200D02*
X145387498Y-132527200D01*
D28*
X136650000Y-148287810D02*
X135711810Y-149226000D01*
D27*
X145260384Y-138357083D02*
X139957083Y-138357083D01*
X145387498Y-132527200D02*
X145887502Y-132527200D01*
X139957083Y-138357083D02*
X139750000Y-138150000D01*
X143520000Y-133210000D02*
X144202800Y-132527200D01*
X139750000Y-134260913D02*
X138556757Y-133067670D01*
D28*
X136650000Y-147000000D02*
X136650000Y-148287810D01*
D27*
X132849999Y-136670000D02*
X132650000Y-136670000D01*
X139750000Y-133553806D02*
X139750000Y-138150000D01*
X133963864Y-137663864D02*
X134450000Y-138150000D01*
D28*
X136390190Y-145626000D02*
X136650000Y-145885810D01*
D27*
X139750000Y-138150000D02*
X139750000Y-134260913D01*
X139396447Y-138150000D02*
X136435437Y-135188990D01*
X145100000Y-131925000D02*
X145100000Y-132239702D01*
X146102200Y-131448412D02*
X144880000Y-130226212D01*
X145887502Y-132527200D02*
X146102200Y-132312502D01*
X142750000Y-129220000D02*
X143420000Y-129890000D01*
D28*
X132135000Y-146035000D02*
X132800000Y-145370000D01*
D27*
X135153806Y-138150000D02*
X139750000Y-138150000D01*
X134450000Y-138150000D02*
X139750000Y-138150000D01*
D28*
X135200000Y-143370000D02*
X134830000Y-143370000D01*
D27*
X139750000Y-142746194D02*
X140589689Y-143585883D01*
X137250000Y-129050000D02*
X137250000Y-129220000D01*
X145539437Y-138636136D02*
X145260384Y-138357083D01*
X139750000Y-138150000D02*
X139750000Y-142746194D01*
D28*
X131424000Y-148507826D02*
X131424000Y-146746000D01*
D27*
X139396447Y-138150000D02*
X139750000Y-138150000D01*
X135860913Y-138150000D02*
X139750000Y-138150000D01*
X142750000Y-129050000D02*
X142750000Y-129220000D01*
X144880000Y-130100000D02*
X143630000Y-130100000D01*
X139542917Y-137942917D02*
X139750000Y-138150000D01*
X134667670Y-136956757D02*
X135860913Y-138150000D01*
D28*
X135200000Y-143370000D02*
X136000000Y-143370000D01*
D27*
X133750000Y-135769999D02*
X132849999Y-136670000D01*
%TO.N,+1V1*%
X143492617Y-140124850D02*
X143771670Y-140403903D01*
X141689014Y-141511175D02*
X142050515Y-141511175D01*
X142357456Y-141818116D02*
X142078404Y-141539064D01*
X142050515Y-141511175D02*
X142357456Y-141818116D01*
X140500000Y-142700189D02*
X141689014Y-141511175D01*
X142078404Y-141539064D02*
X142078404Y-141121784D01*
X143075338Y-140124850D02*
X143492617Y-140124850D01*
X140943243Y-143232330D02*
X140500000Y-142789087D01*
X140500000Y-142789087D02*
X140500000Y-142700189D01*
X142078404Y-141121784D02*
X143075338Y-140124850D01*
%TO.N,Net-(J1-D0+)*%
X142282802Y-142450569D02*
X142003903Y-142171670D01*
X141650000Y-145349784D02*
X142282802Y-144716981D01*
X142282802Y-144716981D02*
X142282802Y-142450569D01*
X141650000Y-147000000D02*
X141650000Y-145349784D01*
%TO.N,Net-(J1-D1+)*%
X143697016Y-141036356D02*
X143418116Y-140757456D01*
X143697016Y-144602767D02*
X143697016Y-141036356D01*
X143150000Y-145149784D02*
X143697016Y-144602767D01*
X143150000Y-147000000D02*
X143150000Y-145149784D01*
%TO.N,Net-(J1-D0-)*%
X140650000Y-147000000D02*
X140650000Y-145850000D01*
X141929402Y-144570598D02*
X141929402Y-142804276D01*
X141929402Y-142804276D02*
X141650349Y-142525223D01*
X140650000Y-145850000D02*
X141929402Y-144570598D01*
%TO.N,Net-(J1-D1-)*%
X142150000Y-147000000D02*
X142150000Y-145650000D01*
X142150000Y-145650000D02*
X143343616Y-144456384D01*
X143343616Y-141390063D02*
X143064563Y-141111010D01*
X143343616Y-144456384D02*
X143343616Y-141390063D01*
%TO.N,Net-(J1-D2+)*%
X144832330Y-139343243D02*
X145111383Y-139622296D01*
X145111383Y-146538617D02*
X144650000Y-147000000D01*
X145111383Y-139622296D02*
X145111383Y-146538617D01*
%TO.N,Net-(J1-D2-)*%
X144757829Y-144041738D02*
X144757829Y-139975848D01*
X144757829Y-139975848D02*
X144478777Y-139696796D01*
X143650000Y-145149567D02*
X144757829Y-144041738D01*
X143650000Y-147000000D02*
X143650000Y-145149567D01*
D28*
%TO.N,Net-(J1-SCL)*%
X137400000Y-144250000D02*
X137650000Y-144500000D01*
X136090000Y-144250000D02*
X137400000Y-144250000D01*
X137650000Y-144500000D02*
X137650000Y-147000000D01*
D27*
%TO.N,Net-(J1-CK+)*%
X140236136Y-143939437D02*
X140150000Y-144025573D01*
X140150000Y-144025573D02*
X140150000Y-147000000D01*
%TO.N,Net-(J1-CK-)*%
X138277705Y-144973305D02*
X139150000Y-145845600D01*
X139150000Y-145845600D02*
X139150000Y-147000000D01*
X138277705Y-143511382D02*
X138277705Y-144973305D01*
X138556757Y-143232330D02*
X138277705Y-143511382D01*
D28*
%TO.N,Net-(J1-SDA)*%
X136502000Y-145100000D02*
X137150000Y-145748000D01*
X136090000Y-145100000D02*
X136502000Y-145100000D01*
X137150000Y-145748000D02*
X137150000Y-147000000D01*
%TO.N,Net-(J1-HPD)*%
X135650000Y-147000000D02*
X134900000Y-146250000D01*
X134900000Y-146250000D02*
X134650000Y-146250000D01*
D27*
%TO.N,Net-(P2-TX1-)*%
X138250000Y-130850000D02*
X138100000Y-131000000D01*
X138250000Y-129050000D02*
X138250000Y-130850000D01*
%TO.N,Net-(P2-TX1+)*%
X137750000Y-130400000D02*
X137750000Y-129050000D01*
X137450000Y-130700000D02*
X137750000Y-130400000D01*
%TO.N,Net-(P2-D+)*%
X139750000Y-129050000D02*
X139750000Y-129794183D01*
X141955817Y-132000000D02*
X144562500Y-132000000D01*
X139750000Y-129794183D02*
X141955817Y-132000000D01*
%TO.N,Net-(P2-RX1-)*%
X141578164Y-132227425D02*
X141578164Y-133139855D01*
X139726939Y-130376200D02*
X141578164Y-132227425D01*
X141578164Y-133139855D02*
X141296796Y-133421223D01*
X139500000Y-130376200D02*
X139726939Y-130376200D01*
%TO.N,Net-(P2-RX1+)*%
X141222295Y-132788618D02*
X140943243Y-133067670D01*
X139500000Y-130900000D02*
X139750956Y-130900000D01*
X139750956Y-130900000D02*
X141222295Y-132371339D01*
X141222295Y-132371339D02*
X141222295Y-132788618D01*
%TO.N,Net-(P2-D-)*%
X145422800Y-131322800D02*
X145637500Y-131537500D01*
X140250000Y-129794400D02*
X141778400Y-131322800D01*
X141778400Y-131322800D02*
X145422800Y-131322800D01*
X145637500Y-131537500D02*
X145637500Y-132000000D01*
X140250000Y-129050000D02*
X140250000Y-129794400D01*
%TO.N,Net-(U1-DM)*%
X145637500Y-133700000D02*
X145637500Y-136151587D01*
X145637500Y-136151587D02*
X144832330Y-136956757D01*
%TO.N,SPICLK*%
X132450000Y-139550000D02*
X132450000Y-142050000D01*
X132450000Y-142050000D02*
X131700000Y-142800000D01*
%TO.N,Net-(U1-XTOUT)*%
X137496097Y-134128330D02*
X137217045Y-133849278D01*
D28*
X131850000Y-135880000D02*
X131700000Y-136030000D01*
X131350000Y-135050000D02*
X131850000Y-135050000D01*
D27*
X132909012Y-137177200D02*
X131440988Y-137177200D01*
X136236934Y-133849278D02*
X132909012Y-137177200D01*
X131222800Y-136307201D02*
X131500001Y-136030000D01*
X131440988Y-137177200D02*
X131222800Y-136959012D01*
X131500001Y-136030000D02*
X131700000Y-136030000D01*
D28*
X129850000Y-133550000D02*
X131350000Y-135050000D01*
D27*
X131222800Y-136959012D02*
X131222800Y-136307201D01*
X137217045Y-133849278D02*
X136236934Y-133849278D01*
D28*
X131850000Y-135050000D02*
X131850000Y-135880000D01*
%TO.N,Net-(U1-XTIN)*%
X134250000Y-133550000D02*
X133990000Y-133550000D01*
X137124874Y-133050000D02*
X137849651Y-133774777D01*
X132650000Y-136030000D02*
X132650000Y-135210000D01*
X134250000Y-133550000D02*
X134750000Y-133050000D01*
X133990000Y-133550000D02*
X132490000Y-135050000D01*
X134750000Y-133050000D02*
X137124874Y-133050000D01*
X132650000Y-135210000D02*
X132490000Y-135050000D01*
D27*
%TO.N,Net-(U1-DP)*%
X144562500Y-134062664D02*
X144562500Y-133700000D01*
X144478777Y-136603204D02*
X144757829Y-136324152D01*
X144757829Y-136324152D02*
X144757829Y-134257993D01*
X144757829Y-134257993D02*
X144562500Y-134062664D01*
D28*
%TO.N,+5V*%
X132820000Y-144750000D02*
X132800000Y-144730000D01*
D27*
X145777200Y-133172800D02*
X145387498Y-133172800D01*
D28*
X135450000Y-144700000D02*
X135450000Y-145100000D01*
D27*
X145387498Y-133172800D02*
X145100000Y-133460298D01*
X146455600Y-131035600D02*
X146455600Y-132494400D01*
X138750000Y-129712482D02*
X138749999Y-129712483D01*
X138750000Y-129050000D02*
X138750000Y-129712482D01*
D28*
X135420000Y-144730000D02*
X135450000Y-144700000D01*
D27*
X145535000Y-130115000D02*
X146455600Y-131035600D01*
X145100000Y-133460298D02*
X145100000Y-133775000D01*
D28*
X133710000Y-144710000D02*
X133750000Y-144750000D01*
D27*
X141250000Y-129050000D02*
X141250000Y-129700000D01*
D28*
X135450000Y-144250000D02*
X135450000Y-144700000D01*
X133750000Y-144750000D02*
X132820000Y-144750000D01*
D27*
X145520000Y-130100000D02*
X145535000Y-130115000D01*
X141250000Y-129700000D02*
X141500000Y-129950000D01*
D28*
X134620000Y-144730000D02*
X133770000Y-144730000D01*
X133770000Y-144730000D02*
X133750000Y-144750000D01*
X134620000Y-144730000D02*
X135420000Y-144730000D01*
D27*
X146455600Y-132494400D02*
X145777200Y-133172800D01*
D28*
X133710000Y-142700000D02*
X133710000Y-144710000D01*
%TO.N,Net-(J1-+5V)*%
X133750000Y-146852000D02*
X135174000Y-148276000D01*
X136150000Y-148150000D02*
X136150000Y-147000000D01*
X133750000Y-145390000D02*
X133750000Y-146852000D01*
X136024000Y-148276000D02*
X136150000Y-148150000D01*
X135174000Y-148276000D02*
X136024000Y-148276000D01*
D27*
%TO.N,Net-(U1-USB_REXT)*%
X143697169Y-135263491D02*
X143418116Y-135542544D01*
X143697169Y-134167169D02*
X143697169Y-135263491D01*
X143450000Y-133920000D02*
X143697169Y-134167169D01*
D28*
%TO.N,Net-(U1-HDMIRX_REXT)*%
X136670000Y-143400000D02*
X137681981Y-143400000D01*
X137681981Y-143400000D02*
X138203204Y-142878777D01*
%TO.N,Net-(U1-GPIO0)*%
X134350000Y-142700000D02*
X135170000Y-142700000D01*
X135170000Y-142700000D02*
X135200000Y-142730000D01*
X135200000Y-142730000D02*
X136230660Y-142730000D01*
X136230660Y-142730000D02*
X137142544Y-141818116D01*
%TD*%
M02*
