%TF.GenerationSoftware,KiCad,Pcbnew,9.0.6*%
%TF.CreationDate,2026-01-02T14:09:46+01:00*%
%TF.ProjectId,Expansion_Card_Retrofit,45787061-6e73-4696-9f6e-5f436172645f,X1*%
%TF.SameCoordinates,Original*%
%TF.FileFunction,Soldermask,Bot*%
%TF.FilePolarity,Negative*%
%FSLAX46Y46*%
G04 Gerber Fmt 4.6, Leading zero omitted, Abs format (unit mm)*
G04 Created by KiCad (PCBNEW 9.0.6) date 2026-01-02 14:09:46*
%MOMM*%
%LPD*%
G01*
G04 APERTURE LIST*
G04 Aperture macros list*
%AMRoundRect*
0 Rectangle with rounded corners*
0 $1 Rounding radius*
0 $2 $3 $4 $5 $6 $7 $8 $9 X,Y pos of 4 corners*
0 Add a 4 corners polygon primitive as box body*
4,1,4,$2,$3,$4,$5,$6,$7,$8,$9,$2,$3,0*
0 Add four circle primitives for the rounded corners*
1,1,$1+$1,$2,$3*
1,1,$1+$1,$4,$5*
1,1,$1+$1,$6,$7*
1,1,$1+$1,$8,$9*
0 Add four rect primitives between the rounded corners*
20,1,$1+$1,$2,$3,$4,$5,0*
20,1,$1+$1,$4,$5,$6,$7,0*
20,1,$1+$1,$6,$7,$8,$9,0*
20,1,$1+$1,$8,$9,$2,$3,0*%
G04 Aperture macros list end*
%ADD10RoundRect,0.062500X0.375000X0.062500X-0.375000X0.062500X-0.375000X-0.062500X0.375000X-0.062500X0*%
%ADD11RoundRect,0.062500X0.062500X0.375000X-0.062500X0.375000X-0.062500X-0.375000X0.062500X-0.375000X0*%
%ADD12R,2.100000X2.100000*%
%ADD13RoundRect,0.100000X-0.130000X-0.100000X0.130000X-0.100000X0.130000X0.100000X-0.130000X0.100000X0*%
%ADD14RoundRect,0.100000X0.130000X0.100000X-0.130000X0.100000X-0.130000X-0.100000X0.130000X-0.100000X0*%
%ADD15RoundRect,0.100000X0.100000X-0.217500X0.100000X0.217500X-0.100000X0.217500X-0.100000X-0.217500X0*%
%ADD16RoundRect,0.100000X-0.100000X0.130000X-0.100000X-0.130000X0.100000X-0.130000X0.100000X0.130000X0*%
%ADD17RoundRect,0.100000X0.100000X-0.130000X0.100000X0.130000X-0.100000X0.130000X-0.100000X-0.130000X0*%
%ADD18R,0.380000X1.000000*%
%ADD19R,0.700000X1.150000*%
%ADD20C,1.800000*%
%ADD21R,1.500000X1.500000*%
%ADD22RoundRect,0.137500X-0.137500X0.612500X-0.137500X-0.612500X0.137500X-0.612500X0.137500X0.612500X0*%
G04 APERTURE END LIST*
D10*
%TO.C,U4*%
X149637500Y-133200000D03*
X149637500Y-133700000D03*
X149637500Y-134200000D03*
X149637500Y-134700000D03*
X149637500Y-135200000D03*
X149637500Y-135700000D03*
D11*
X148950000Y-136387500D03*
X148450000Y-136387500D03*
X147950000Y-136387500D03*
X147450000Y-136387500D03*
X146950000Y-136387500D03*
X146450000Y-136387500D03*
D10*
X145762500Y-135700000D03*
X145762500Y-135200000D03*
X145762500Y-134700000D03*
X145762500Y-134200000D03*
X145762500Y-133700000D03*
X145762500Y-133200000D03*
D11*
X146450000Y-132512500D03*
X146950000Y-132512500D03*
X147450000Y-132512500D03*
X147950000Y-132512500D03*
X148450000Y-132512500D03*
X148950000Y-132512500D03*
D12*
X147700000Y-134450000D03*
%TD*%
D13*
%TO.C,R18*%
X143867500Y-132550000D03*
X144507500Y-132550000D03*
%TD*%
D14*
%TO.C,R17*%
X144507500Y-133350000D03*
X143867500Y-133350000D03*
%TD*%
%TO.C,R16*%
X151457500Y-135200000D03*
X150817500Y-135200000D03*
%TD*%
D13*
%TO.C,R15*%
X143817500Y-135200000D03*
X144457500Y-135200000D03*
%TD*%
D14*
%TO.C,R14*%
X151452500Y-134450000D03*
X150812500Y-134450000D03*
%TD*%
D13*
%TO.C,R13*%
X150817500Y-133700000D03*
X151457500Y-133700000D03*
%TD*%
D14*
%TO.C,R12*%
X150507500Y-138200000D03*
X149867500Y-138200000D03*
%TD*%
%TO.C,R11*%
X144457500Y-134400000D03*
X143817500Y-134400000D03*
%TD*%
D15*
%TO.C,R10*%
X147937500Y-131157500D03*
X147937500Y-130342500D03*
%TD*%
D16*
%TO.C,L4*%
X146487500Y-130680000D03*
X146487500Y-131320000D03*
%TD*%
D14*
%TO.C,L3*%
X151402500Y-132050000D03*
X150762500Y-132050000D03*
%TD*%
D17*
%TO.C,L2*%
X148987500Y-138170000D03*
X148987500Y-137530000D03*
%TD*%
%TO.C,L1*%
X146437500Y-138170000D03*
X146437500Y-137530000D03*
%TD*%
D14*
%TO.C,C7*%
X145520000Y-130950000D03*
X144880000Y-130950000D03*
%TD*%
%TO.C,C6*%
X151412500Y-132850000D03*
X150772500Y-132850000D03*
%TD*%
%TO.C,C5*%
X149657500Y-139100000D03*
X149017500Y-139100000D03*
%TD*%
%TO.C,C4*%
X146402500Y-139050000D03*
X145762500Y-139050000D03*
%TD*%
D18*
%TO.C,P2*%
X142750000Y-129050000D03*
X142250000Y-129050000D03*
X141750000Y-129050000D03*
X141250000Y-129050000D03*
X140750000Y-129050000D03*
X139250000Y-129050000D03*
X138750000Y-129050000D03*
X138250000Y-129050000D03*
X137750000Y-129050000D03*
X137250000Y-129050000D03*
D19*
X143420000Y-129890000D03*
%TD*%
D20*
%TO.C,J1*%
X132050000Y-152900000D03*
X132650000Y-148000000D03*
X147150000Y-148000000D03*
X147750000Y-152900000D03*
%TD*%
D21*
%TO.C,TP2*%
X134450000Y-128300000D03*
%TD*%
%TO.C,TP4*%
X145550000Y-128300000D03*
%TD*%
D16*
%TO.C,C8*%
X138250000Y-131430000D03*
X138250000Y-132070000D03*
%TD*%
%TO.C,C9*%
X137450000Y-131430000D03*
X137450000Y-132070000D03*
%TD*%
D22*
%TO.C,U2*%
X129145000Y-137500000D03*
X130415000Y-137500000D03*
X131685000Y-137500000D03*
X132955000Y-137500000D03*
X132955000Y-142800000D03*
X131685000Y-142800000D03*
X130415000Y-142800000D03*
X129145000Y-142800000D03*
%TD*%
D16*
%TO.C,R3*%
X133750000Y-145380000D03*
X133750000Y-146020000D03*
%TD*%
M02*
