M48
; DRILL file {KiCad 9.0.6} date 2026-01-02T14:09:39+0100
; FORMAT={-:-/ absolute / metric / decimal}
; #@! TF.CreationDate,2026-01-02T14:09:39+01:00
; #@! TF.GenerationSoftware,Kicad,Pcbnew,9.0.6
; #@! TF.FileFunction,Plated,1,4,PTH
FMAT,2
METRIC
; #@! TA.AperFunction,Plated,PTH,ViaDrill
T1C0.100
; #@! TA.AperFunction,Plated,PTH,ViaDrill
T2C0.400
; #@! TA.AperFunction,Plated,PTH,ComponentDrill
T3C1.300
%
G90
G05
T1
X131.7Y-142.8
X132.45Y-139.55
X133.05Y-146.15
X133.71Y-142.7
X133.961Y-137.664
X133.961Y-138.636
X134.314Y-137.31
X134.668Y-139.343
X135.021Y-136.603
X135.021Y-139.697
X135.375Y-140.05
X135.728Y-140.404
X136.082Y-140.757
X136.789Y-134.835
X137.143Y-134.482
X137.45Y-130.7
X138.1Y-131.0
X138.203Y-133.421
X138.75Y-129.712
X138.91Y-132.714
X138.91Y-143.586
X139.264Y-143.939
X139.5Y-130.376
X139.5Y-130.9
X140.236Y-132.361
X141.297Y-142.879
X141.5Y-129.95
X141.65Y-133.775
X142.004Y-134.128
X142.357Y-134.482
X142.357Y-141.818
X142.711Y-134.835
X142.711Y-141.465
X142.85Y-132.8
X143.065Y-135.189
X143.772Y-135.896
X144.125Y-136.25
X144.125Y-140.05
X145.186Y-137.31
X145.52Y-130.95
X145.535Y-130.115
X145.539Y-137.664
X145.762Y-135.7
X146.403Y-139.05
X146.95Y-132.512
X146.95Y-136.387
X147.95Y-132.512
X147.95Y-136.387
X148.45Y-132.512
X148.45Y-136.387
X148.987Y-138.17
X149.637Y-133.2
X149.637Y-134.2
X149.637Y-134.7
X149.637Y-135.7
X151.403Y-132.05
X151.452Y-134.5
T2
X132.135Y-146.035
X133.75Y-135.25
X134.45Y-128.3
X134.5Y-143.7
X134.65Y-146.25
X136.58Y-129.89
X139.75Y-138.15
X143.42Y-129.89
X145.55Y-128.3
T3
X132.05Y-152.9
X132.65Y-148.0
X147.15Y-148.0
X147.75Y-152.9
M30
