%TF.GenerationSoftware,KiCad,Pcbnew,9.0.6*%
%TF.CreationDate,2026-01-02T14:09:46+01:00*%
%TF.ProjectId,Expansion_Card_Retrofit,45787061-6e73-4696-9f6e-5f436172645f,X1*%
%TF.SameCoordinates,Original*%
%TF.FileFunction,Soldermask,Top*%
%TF.FilePolarity,Negative*%
%FSLAX46Y46*%
G04 Gerber Fmt 4.6, Leading zero omitted, Abs format (unit mm)*
G04 Created by KiCad (PCBNEW 9.0.6) date 2026-01-02 14:09:46*
%MOMM*%
%LPD*%
G01*
G04 APERTURE LIST*
G04 Aperture macros list*
%AMRoundRect*
0 Rectangle with rounded corners*
0 $1 Rounding radius*
0 $2 $3 $4 $5 $6 $7 $8 $9 X,Y pos of 4 corners*
0 Add a 4 corners polygon primitive as box body*
4,1,4,$2,$3,$4,$5,$6,$7,$8,$9,$2,$3,0*
0 Add four circle primitives for the rounded corners*
1,1,$1+$1,$2,$3*
1,1,$1+$1,$4,$5*
1,1,$1+$1,$6,$7*
1,1,$1+$1,$8,$9*
0 Add four rect primitives between the rounded corners*
20,1,$1+$1,$2,$3,$4,$5,0*
20,1,$1+$1,$4,$5,$6,$7,0*
20,1,$1+$1,$6,$7,$8,$9,0*
20,1,$1+$1,$8,$9,$2,$3,0*%
%AMRotRect*
0 Rectangle, with rotation*
0 The origin of the aperture is its center*
0 $1 length*
0 $2 width*
0 $3 Rotation angle, in degrees counterclockwise*
0 Add horizontal line*
21,1,$1,$2,0,0,$3*%
G04 Aperture macros list end*
%ADD10R,1.500000X1.500000*%
%ADD11R,0.380000X1.000000*%
%ADD12R,0.700000X1.150000*%
%ADD13RoundRect,0.100000X0.100000X-0.130000X0.100000X0.130000X-0.100000X0.130000X-0.100000X-0.130000X0*%
%ADD14RoundRect,0.100000X0.130000X0.100000X-0.130000X0.100000X-0.130000X-0.100000X0.130000X-0.100000X0*%
%ADD15RoundRect,0.100000X-0.100000X0.130000X-0.100000X-0.130000X0.100000X-0.130000X0.100000X0.130000X0*%
%ADD16R,0.300000X1.900000*%
%ADD17C,1.800000*%
%ADD18RoundRect,0.062500X0.203293X0.291682X-0.291682X-0.203293X-0.203293X-0.291682X0.291682X0.203293X0*%
%ADD19RoundRect,0.062500X-0.203293X0.291682X-0.291682X0.203293X0.203293X-0.291682X0.291682X-0.203293X0*%
%ADD20RotRect,5.700000X5.700000X225.000000*%
%ADD21RoundRect,0.093750X-0.093750X0.156250X-0.093750X-0.156250X0.093750X-0.156250X0.093750X0.156250X0*%
%ADD22RoundRect,0.075000X-0.075000X0.250000X-0.075000X-0.250000X0.075000X-0.250000X0.075000X0.250000X0*%
%ADD23RoundRect,0.249999X-0.650001X-0.450001X0.650001X-0.450001X0.650001X0.450001X-0.650001X0.450001X0*%
%ADD24RoundRect,0.100000X-0.130000X-0.100000X0.130000X-0.100000X0.130000X0.100000X-0.130000X0.100000X0*%
G04 APERTURE END LIST*
D10*
%TO.C,TP3*%
X145550000Y-128300000D03*
%TD*%
%TO.C,TP1*%
X134450000Y-128300000D03*
%TD*%
D11*
%TO.C,P2*%
X137250000Y-129050000D03*
X137750000Y-129050000D03*
X138250000Y-129050000D03*
X138750000Y-129050000D03*
X139250000Y-129050000D03*
X139750000Y-129050000D03*
X140250000Y-129050000D03*
X140750000Y-129050000D03*
X141250000Y-129050000D03*
X141750000Y-129050000D03*
X142250000Y-129050000D03*
X142750000Y-129050000D03*
D12*
X136580000Y-129890000D03*
%TD*%
D13*
%TO.C,C10*%
X132650000Y-136670000D03*
X132650000Y-136030000D03*
%TD*%
D14*
%TO.C,C1*%
X145520000Y-130100000D03*
X144880000Y-130100000D03*
%TD*%
D13*
%TO.C,R1*%
X143450000Y-133850000D03*
X143450000Y-133210000D03*
%TD*%
D14*
%TO.C,R6*%
X136090000Y-145100000D03*
X135450000Y-145100000D03*
%TD*%
D15*
%TO.C,C2*%
X132800000Y-144730000D03*
X132800000Y-145370000D03*
%TD*%
%TO.C,R8*%
X135200000Y-142730000D03*
X135200000Y-143370000D03*
%TD*%
%TO.C,C3*%
X134620000Y-144730000D03*
X134620000Y-145370000D03*
%TD*%
D16*
%TO.C,J1*%
X144650000Y-147000000D03*
X144150000Y-147000000D03*
X143650000Y-147000000D03*
X143150000Y-147000000D03*
X142650000Y-147000000D03*
X142150000Y-147000000D03*
X141650000Y-147000000D03*
X141150000Y-147000000D03*
X140650000Y-147000000D03*
X140150000Y-147000000D03*
X139650000Y-147000000D03*
X139150000Y-147000000D03*
X138650000Y-147000000D03*
X138150000Y-147000000D03*
X137650000Y-147000000D03*
X137150000Y-147000000D03*
X136650000Y-147000000D03*
X136150000Y-147000000D03*
X135650000Y-147000000D03*
D17*
X132050000Y-152900000D03*
X132650000Y-148000000D03*
X147150000Y-148000000D03*
X147750000Y-152900000D03*
%TD*%
D18*
%TO.C,U1*%
X145539437Y-137663864D03*
X145185883Y-137310311D03*
X144832330Y-136956757D03*
X144478777Y-136603204D03*
X144125223Y-136249651D03*
X143771670Y-135896097D03*
X143418116Y-135542544D03*
X143064563Y-135188990D03*
X142711010Y-134835437D03*
X142357456Y-134481884D03*
X142003903Y-134128330D03*
X141650349Y-133774777D03*
X141296796Y-133421223D03*
X140943243Y-133067670D03*
X140589689Y-132714117D03*
X140236136Y-132360563D03*
D19*
X139263864Y-132360563D03*
X138910311Y-132714117D03*
X138556757Y-133067670D03*
X138203204Y-133421223D03*
X137849651Y-133774777D03*
X137496097Y-134128330D03*
X137142544Y-134481884D03*
X136788990Y-134835437D03*
X136435437Y-135188990D03*
X136081884Y-135542544D03*
X135728330Y-135896097D03*
X135374777Y-136249651D03*
X135021223Y-136603204D03*
X134667670Y-136956757D03*
X134314117Y-137310311D03*
X133960563Y-137663864D03*
D18*
X133960563Y-138636136D03*
X134314117Y-138989689D03*
X134667670Y-139343243D03*
X135021223Y-139696796D03*
X135374777Y-140050349D03*
X135728330Y-140403903D03*
X136081884Y-140757456D03*
X136435437Y-141111010D03*
X136788990Y-141464563D03*
X137142544Y-141818116D03*
X137496097Y-142171670D03*
X137849651Y-142525223D03*
X138203204Y-142878777D03*
X138556757Y-143232330D03*
X138910311Y-143585883D03*
X139263864Y-143939437D03*
D19*
X140236136Y-143939437D03*
X140589689Y-143585883D03*
X140943243Y-143232330D03*
X141296796Y-142878777D03*
X141650349Y-142525223D03*
X142003903Y-142171670D03*
X142357456Y-141818116D03*
X142711010Y-141464563D03*
X143064563Y-141111010D03*
X143418116Y-140757456D03*
X143771670Y-140403903D03*
X144125223Y-140050349D03*
X144478777Y-139696796D03*
X144832330Y-139343243D03*
X145185883Y-138989689D03*
X145539437Y-138636136D03*
D20*
X139750000Y-138150000D03*
%TD*%
D21*
%TO.C,U3*%
X145637500Y-132000000D03*
D22*
X145100000Y-131925000D03*
D21*
X144562500Y-132000000D03*
X144562500Y-133700000D03*
D22*
X145100000Y-133775000D03*
D21*
X145637500Y-133700000D03*
%TD*%
D15*
%TO.C,R4*%
X133750000Y-144750000D03*
X133750000Y-145390000D03*
%TD*%
D23*
%TO.C,Y1*%
X129850000Y-133550000D03*
X134250000Y-133550000D03*
X134250000Y-131150000D03*
X129850000Y-131150000D03*
%TD*%
D14*
%TO.C,R2*%
X136670000Y-143400000D03*
X136030000Y-143400000D03*
%TD*%
D13*
%TO.C,C11*%
X131700000Y-136670000D03*
X131700000Y-136030000D03*
%TD*%
D14*
%TO.C,R9*%
X132490000Y-135050000D03*
X131850000Y-135050000D03*
%TD*%
%TO.C,R5*%
X136090000Y-144250000D03*
X135450000Y-144250000D03*
%TD*%
D24*
%TO.C,R7*%
X133710000Y-142700000D03*
X134350000Y-142700000D03*
%TD*%
M02*
